<?xml version="1.0" standalone="no"?><svg xmlns="http://www.w3.org/2000/svg" viewBox="0 0 1440 320"><path fill="#10121d" fill-opacity="1" d="M0,288L26.7,261.3C53.3,235,107,181,160,144C213.3,107,267,85,320,112C373.3,139,427,213,480,208C533.3,203,587,117,640,117.3C693.3,117,747,203,800,224C853.3,245,907,203,960,202.7C1013.3,203,1067,245,1120,240C1173.3,235,1227,181,1280,176C1333.3,171,1387,213,1413,234.7L1440,256L1440,0L1413.3,0C1386.7,0,1333,0,1280,0C1226.7,0,1173,0,1120,0C1066.7,0,1013,0,960,0C906.7,0,853,0,800,0C746.7,0,693,0,640,0C586.7,0,533,0,480,0C426.7,0,373,0,320,0C266.7,0,213,0,160,0C106.7,0,53,0,27,0L0,0Z"></path></svg>