<?xml version="1.0" standalone="no"?><svg xmlns="http://www.w3.org/2000/svg" viewBox="0 0 1440 320"><path fill="#10121d" fill-opacity="1" d="M0,0L21.8,26.7C43.6,53,87,107,131,112C174.5,117,218,75,262,69.3C305.5,64,349,96,393,117.3C436.4,139,480,149,524,176C567.3,203,611,245,655,229.3C698.2,213,742,139,785,122.7C829.1,107,873,149,916,181.3C960,213,1004,235,1047,213.3C1090.9,192,1135,128,1178,112C1221.8,96,1265,128,1309,133.3C1352.7,139,1396,117,1418,106.7L1440,96L1440,320L1418.2,320C1396.4,320,1353,320,1309,320C1265.5,320,1222,320,1178,320C1134.5,320,1091,320,1047,320C1003.6,320,960,320,916,320C872.7,320,829,320,785,320C741.8,320,698,320,655,320C610.9,320,567,320,524,320C480,320,436,320,393,320C349.1,320,305,320,262,320C218.2,320,175,320,131,320C87.3,320,44,320,22,320L0,320Z"></path></svg>